<?xml version="1.0" standalone="no"?><!DOCTYPE svg PUBLIC "-//W3C//DTD SVG 1.1//EN" "http://www.w3.org/Graphics/SVG/1.1/DTD/svg11.dtd"><svg t="1562140470942" class="icon" viewBox="0 0 1024 1024" version="1.1" xmlns="http://www.w3.org/2000/svg" p-id="2017" xmlns:xlink="http://www.w3.org/1999/xlink" width="48" height="48"><defs><style type="text/css"></style></defs><path d="M682.2272 526.1184a47.616 47.616 0 1 0 0-95.2192h-102.7456l110.912-110.9504a47.616 47.616 0 1 0-67.3536-67.328l-110.9248 110.9504-110.9504-110.9376a47.616 47.616 0 0 0-67.3408 67.3408l110.9248 110.9376h-102.7456a47.616 47.616 0 1 0 0 95.2192h122.4832v63.488h-122.4832a47.616 47.616 0 1 0 0 95.2576h122.4832v84.608a47.616 47.616 0 0 0 95.2576 0v-84.608h122.4832a47.616 47.616 0 1 0 0-95.2576H559.744v-63.488h122.4832z" fill="#5EBC50" p-id="2018"></path><path d="M891.904 174.528a47.616 47.616 0 1 0-71.2448 63.2192c106.496 119.9872 133.824 292.4672 69.6192 439.3984-44.1088 101.0176-124.9024 178.8288-227.52 219.0592-102.6304 40.2304-214.7968 38.0928-315.8016-6.0032-208.5504-91.0848-304.128-334.8608-213.056-543.3856 44.096-101.0304 124.928-178.8288 227.5328-219.072 102.6304-40.2176 214.7712-38.1184 315.8016 6.016a47.5776 47.5776 0 0 0 62.6816-24.5888 47.6032 47.6032 0 0 0-24.5632-62.6944C591.0272-7.808 452.992-10.4448 326.6816 39.0912 200.384 88.64 100.9152 184.3968 46.6432 308.7232c-112.1152 256.6784 5.5296 556.672 262.208 668.7744 65.1776 28.4544 134.0928 42.7264 203.136 42.7136 62.6816 0 125.4528-11.7632 185.5488-35.328 126.3104-49.5104 225.7792-145.28 280.0384-269.6064 79.0144-180.8256 45.376-393.0752-85.6704-540.7488" fill="#5EBC50" p-id="2019"></path></svg>